<?xml version="1.0" standalone="no"?>
<svg xmlns:xlink="http://www.w3.org/1999/xlink" id="wave" style="transform:rotate(180deg); transition: 0.3s" viewBox="0 0 1440 100" version="1.1" xmlns="http://www.w3.org/2000/svg"><defs><linearGradient id="sw-gradient-0" x1="0" x2="0" y1="1" y2="0"><stop stop-color="rgba(211, 133, 201, 1)" offset="0%"/><stop stop-color="rgba(211, 133, 201, 1)" offset="100%"/></linearGradient></defs><path style="transform:translate(0, 0px); opacity:1" fill="url(#sw-gradient-0)" d="M0,10L24,21.7C48,33,96,57,144,65C192,73,240,67,288,65C336,63,384,67,432,70C480,73,528,77,576,78.3C624,80,672,80,720,66.7C768,53,816,27,864,15C912,3,960,7,1008,15C1056,23,1104,37,1152,41.7C1200,47,1248,43,1296,45C1344,47,1392,53,1440,48.3C1488,43,1536,27,1584,21.7C1632,17,1680,23,1728,25C1776,27,1824,23,1872,23.3C1920,23,1968,27,2016,28.3C2064,30,2112,30,2160,28.3C2208,27,2256,23,2304,21.7C2352,20,2400,20,2448,31.7C2496,43,2544,67,2592,78.3C2640,90,2688,90,2736,80C2784,70,2832,50,2880,43.3C2928,37,2976,43,3024,40C3072,37,3120,23,3168,26.7C3216,30,3264,50,3312,53.3C3360,57,3408,43,3432,36.7L3456,30L3456,100L3432,100C3408,100,3360,100,3312,100C3264,100,3216,100,3168,100C3120,100,3072,100,3024,100C2976,100,2928,100,2880,100C2832,100,2784,100,2736,100C2688,100,2640,100,2592,100C2544,100,2496,100,2448,100C2400,100,2352,100,2304,100C2256,100,2208,100,2160,100C2112,100,2064,100,2016,100C1968,100,1920,100,1872,100C1824,100,1776,100,1728,100C1680,100,1632,100,1584,100C1536,100,1488,100,1440,100C1392,100,1344,100,1296,100C1248,100,1200,100,1152,100C1104,100,1056,100,1008,100C960,100,912,100,864,100C816,100,768,100,720,100C672,100,624,100,576,100C528,100,480,100,432,100C384,100,336,100,288,100C240,100,192,100,144,100C96,100,48,100,24,100L0,100Z"/></svg>